<svg xmlns="http://www.w3.org/2000/svg" viewBox="0 0 512 512" style="height: 512px; width: 512px;"><defs><filter id="shadow-1" height="300%" width="300%" x="-100%" y="-100%"><feFlood flood-color="rgba(0, 76, 255, 1)" result="flood"></feFlood><feComposite in="flood" in2="SourceGraphic" operator="atop" result="composite"></feComposite><feGaussianBlur in="composite" stdDeviation="15" result="blur"></feGaussianBlur><feOffset dx="0" dy="0" result="offset"></feOffset><feComposite in="SourceGraphic" in2="offset" operator="over"></feComposite></filter><filter id="shadow-2" height="300%" width="300%" x="-100%" y="-100%"><feFlood flood-color="rgba(0, 76, 255, 1)" result="flood"></feFlood><feComposite in="flood" in2="SourceGraphic" operator="atop" result="composite"></feComposite><feGaussianBlur in="composite" stdDeviation="15" result="blur"></feGaussianBlur><feOffset dx="0" dy="0" result="offset"></feOffset><feComposite in="SourceGraphic" in2="offset" operator="over"></feComposite></filter><filter id="shadow-3" height="300%" width="300%" x="-100%" y="-100%"><feFlood flood-color="rgba(0, 76, 255, 1)" result="flood"></feFlood><feComposite in="flood" in2="SourceGraphic" operator="out" result="composite"></feComposite><feGaussianBlur in="composite" stdDeviation="20" result="blur"></feGaussianBlur><feOffset dx="0" dy="0" result="offset"></feOffset><feComposite in="offset" in2="SourceGraphic" operator="atop"></feComposite></filter><linearGradient x1="0" x2="1" y1="0" y2="1" id="lorc-drop-gradient-1"><stop offset="0%" stop-color="#00d1ff" stop-opacity="1"></stop><stop offset="100%" stop-color="#0070ff" stop-opacity="1"></stop></linearGradient><linearGradient x1="0" x2="1" y1="0" y2="1" id="lorc-drop-gradient-2"><stop offset="0%" stop-color="#00d1ff" stop-opacity="1"></stop><stop offset="100%" stop-color="#0070ff" stop-opacity="1"></stop></linearGradient></defs><g class="" transform="translate(0,0)" style=""><g><path d="M263.844 40.344C234.1 213.202 145.594 248.03 145.594 369.22C145.594 430.024 205.7 474.72 263.844 474.72C323.294 474.72 379.781 432.917 379.781 375.187C379.781 258.855 294.581 212.875 263.845 40.344Z" class="" fill="url(#lorc-drop-gradient-2)" filter="url(#shadow-2)"></path><path d="M205.564 257.438C177.601 332.968 200.459 412.005 259.814 436.813C274.999 443.161 291.538 444.527 307.719 443.093C191.585 492.88 121.883 363.277 205.561 257.437Z" class="selected" fill="#ffffff" filter="url(#shadow-3)" fill-opacity="1"></path></g></g></svg>