<svg xmlns="http://www.w3.org/2000/svg" viewBox="0 0 512 512" style="height: 512px; width: 512px;"><defs><filter id="shadow-2" height="300%" width="300%" x="-100%" y="-100%"><feFlood flood-color="rgba(139, 87, 42, 1)" result="flood"></feFlood><feComposite in="flood" in2="SourceGraphic" operator="atop" result="composite"></feComposite><feGaussianBlur in="composite" stdDeviation="15" result="blur"></feGaussianBlur><feOffset dx="0" dy="0" result="offset"></feOffset><feComposite in="SourceGraphic" in2="offset" operator="over"></feComposite></filter><filter id="shadow-3" height="300%" width="300%" x="-100%" y="-100%"><feFlood flood-color="rgba(139, 87, 42, 1)" result="flood"></feFlood><feComposite in="flood" in2="SourceGraphic" operator="out" result="composite"></feComposite><feGaussianBlur in="composite" stdDeviation="15" result="blur"></feGaussianBlur><feOffset dx="0" dy="0" result="offset"></feOffset><feComposite in2="SourceGraphic" in="offset" operator="atop"></feComposite></filter><filter id="shadow-4" height="300%" width="300%" x="-100%" y="-100%"><feFlood flood-color="rgba(139, 87, 42, 1)" result="flood"></feFlood><feComposite in="flood" in2="SourceGraphic" operator="out" result="composite"></feComposite><feGaussianBlur in="composite" stdDeviation="15" result="blur"></feGaussianBlur><feOffset dx="0" dy="0" result="offset"></feOffset><feComposite in="offset" in2="SourceGraphic" operator="atop"></feComposite></filter><filter id="shadow-5" height="300%" width="300%" x="-100%" y="-100%"><feFlood flood-color="rgba(139, 87, 42, 1)" result="flood"></feFlood><feComposite in="flood" in2="SourceGraphic" operator="atop" result="composite"></feComposite><feGaussianBlur in="composite" stdDeviation="15" result="blur"></feGaussianBlur><feOffset dx="0" dy="0" result="offset"></feOffset><feComposite in="SourceGraphic" in2="offset" operator="over"></feComposite></filter><linearGradient x1="0" x2="1" y1="0" y2="1" id="lorc-rock-gradient-1"><stop offset="0%" stop-color="#804818" stop-opacity="1"></stop><stop offset="100%" stop-color="#653003" stop-opacity="1"></stop></linearGradient><linearGradient x1="0" x2="1" y1="0" y2="1" id="lorc-rock-gradient-2"><stop offset="0%" stop-color="#804818" stop-opacity="1"></stop><stop offset="100%" stop-color="#653003" stop-opacity="1"></stop></linearGradient><linearGradient x1="0" x2="1" y1="0" y2="1" id="lorc-rock-gradient-5"><stop offset="0%" stop-color="#804818" stop-opacity="1"></stop><stop offset="100%" stop-color="#653003" stop-opacity="1"></stop></linearGradient></defs><circle cx="256" cy="256" r="256" fill="#ffffff" fill-opacity="1"></circle><g class="" transform="translate(0,0)" style=""><g transform="translate(25.6, 25.6) scale(0.9, 0.9) rotate(0, 256, 256) skewX(0) skewY(0)"><path d="M228.813 23L68.75 72.28L39.5 182.095L87.03 160.875L97.47 156.22L99.97 167.375L108.72 206.5L115.125 235.03L93.375 215.5L77.655 201.375L49.437 233.719L190.094 369.719L199.75 329.029L207.28 297.155L217.687 328.218L272.407 491.81L432.343 465.5L478.093 262.562L393.53 113.844L228.814 23Z" class="" fill="url(#lorc-rock-gradient-2)" filter="url(#shadow-2)"></path><path d="M171.125 72.875L143.312 112.781L140.062 186.221L112.875 97.281L171.125 72.876Z" class="selected" fill="#ffffff" fill-opacity="1" filter="url(#shadow-3)"></path><path d="M188.969 166.281L302.093 321.531L407 355.407L299.625 354.563L188.969 226.563L188.969 166.283Z" class="" fill="#fff" filter="url(#shadow-4)" fill-opacity="1"></path><path d="M79.312 330.25L219.437 483.375L213.874 417.5L79.311 330.25Z" class="" fill="url(#lorc-rock-gradient-5)" filter="url(#shadow-5)"></path></g></g></svg>